<svg width="572" height="770" viewBox="0 0 572 770" fill="none" xmlns="http://www.w3.org/2000/svg">
<path fill-rule="evenodd" clip-rule="evenodd" d="M571.39 90.0558L487.661 570.399L404.672 89.9634C400.977 41.4256 439.354 0 488.031 0C536.753 0 575.177 41.518 571.39 90.1019V90.0558ZM195.675 770H0V16.9033H195.675C300.925 16.9033 347.846 68.1196 347.846 182.929V598.063C347.846 716.983 300.925 770 195.675 770ZM149.215 629.698H166.026C186.947 629.698 195.721 623.787 195.721 587.164V191.842C195.721 154.342 184.083 151.294 169.998 151.294H149.215V629.698ZM572 676.802C572 723.172 534.162 760.762 487.486 760.762C440.81 760.762 402.972 723.172 402.972 676.802C402.972 630.433 440.81 592.843 487.486 592.843C534.162 592.843 572 630.433 572 676.802Z" fill="#E7E7E7"/>
</svg>
